<?xml version="1.0" encoding="utf-8"?>
<!-- Generator: Adobe Illustrator 19.2.1, SVG Export Plug-In . SVG Version: 6.00 Build 0)  -->
<svg version="1.1" id="Capa_1" xmlns="http://www.w3.org/2000/svg" xmlns:xlink="http://www.w3.org/1999/xlink" x="0px" y="0px"
	 viewBox="0 0 128 73" style="enable-background:new 0 0 128 73;" xml:space="preserve">
<style type="text/css">
	.st0{fill:#E2383F;}
</style>
<g>
	<g>
		<g>
			<g>
				<path class="st0" d="M112.7,16.4c-8.4-11.8-32.4-9-56.3,5.5c-0.1-0.4-0.3-0.8-0.5-1.2C85.4,2,114.5-3.2,123.2,8.9
					c5.3,7.5,1.7,20.1-8.3,33.9c-0.2-2.4-0.7-4.3-1.5-5.8C116.4,28.9,116.4,21.6,112.7,16.4" stroke="transparent" stroke-width="1" opacity="0.8"/>
				<path d="M61,43.5c0,5.6,4.1,8.4,8.7,11l4.1,2.3c2.2,1.3,3.2,2.7,3.2,4.6c0,2.6-1.9,4.1-4.9,4.1c-5.6,0-7.3-4.6-8.2-9.2l-0.1-0.7
					h-2.7v12.8h2.1l0.3-0.3c0.5-0.6,0.5-0.6,1-0.6c0.8,0,1.9,0.2,3.1,0.5c1.5,0.4,3.3,0.8,5.1,0.8c4.6,0,11.1-3.1,11.1-10
					c0-4.8-2.9-7-6.4-9.1l-7.6-4.5c-1.8-1-2.6-2.4-2.6-4.3c0-1.5,1.2-3.7,4.5-3.7c2.4,0,5.5,0.9,7,8l0.1,0.7h2.7l-0.3-11.4h-2.1
					L78.7,35c-0.1,0.2-0.3,0.3-0.5,0.3c-0.1,0-0.7-0.2-1.1-0.3c-1.4-0.4-3.4-1.1-5.5-1.1C65.5,33.9,61,37.9,61,43.5" stroke="transparent" stroke-width="1" opacity="0.8"/>
				<path d="M11.3,49.9c0-9,4.2-12.3,7.9-12.3c4,0,6.4,3.4,6.4,6.6v15.7c-0.5,2-2.8,3.5-5.4,3.5C16.1,63.4,11.3,59.9,11.3,49.9
					 M32,18.1l-0.2,0.1l0,0c-1.3,0.5-6.3,2.1-10.3,3.1l-0.7,0.2v2.8l1-0.1c2.3-0.2,3.1,0.1,3.4,0.4c0.4,0.3,0.4,1,0.4,2.1V36
					c-2.1-1.5-4.1-2.1-6.6-2.1c-4,0-8,2-11,5.5c-2.9,3.5-4.6,8.1-4.6,12.7c0,16.2,12.3,16.7,13.7,16.7c3.4,0,6.2-1.1,8.4-3.2v2.5
					l1,0.8l11.4-4v-2.7L37,62.3c-2.2,0.2-3.1-0.1-3.4-0.4c-0.3-0.3-0.4-0.8-0.4-1.8V18.5L32,18.1L32,18.1z" stroke="transparent" stroke-width="1" opacity="0.8"/>
				<path d="M117.3,65.3c-3.1-0.6-3.5-0.6-3.5-5.1V46c0-8-3.2-12.1-9.6-12.1c-3.6,0-6.9,1.5-9.5,4.4V18.7L93.6,18h-0.1l-0.3,0.1
					c-1.5,0.6-7.3,2.3-9.9,3.1l-0.6,0.2v2.8l1-0.1c0.6-0.1,1-0.1,1.7-0.1s1.1,0.1,1.4,0.4c0.4,0.5,0.4,1.3,0.4,2.1v0.3V60
					c0,4.5-0.3,4.9-3.7,5.3l-0.8,0.1v2.7h16.4v-2.8H99c-3.2-0.3-4-0.4-4-5.2V43.4c0.4-0.5,3.3-3.9,6.9-3.9c3.1,0,4.5,2.1,4.5,6.8
					v13.9c0,4.4-0.8,4.9-4,5.1h-0.1v2.8h16v-2.7L117.3,65.3" stroke="transparent" stroke-width="1" opacity="0.8"/>
				<path class="st0" d="M49.4,67.5c5.4,0,8.1-3.1,10.1-6.8c0.1-0.2,0-0.4-0.2-0.3c-1.4,0.7-5.2,2.4-9.8,2.4s-8.4-1.7-9.8-2.4
					c-0.2-0.1-0.3,0.1-0.2,0.3C41.3,64.4,44,67.5,49.4,67.5" stroke="transparent" stroke-width="1" opacity="0.8"/>
				<path class="st0" d="M41.5,51.7c1.5,2.9,3.6,5.4,7.9,5.4s6.4-2.5,7.9-5.4c0.1-0.2,0-0.3-0.2-0.2c-1,0.4-3.9,1.8-7.7,1.8
					s-6.8-1.3-7.7-1.8C41.5,51.4,41.4,51.5,41.5,51.7" stroke="transparent" stroke-width="1" opacity="0.8"/>
				<path class="st0" d="M43.5,43.5c1.1,2.1,2.7,4.1,5.9,4.1s4.8-2,5.9-4.1c0.1-0.1,0-0.3-0.2-0.2c-0.5,0.2-2.8,1.2-5.8,1.2
					s-5.2-0.9-5.8-1.2C43.5,43.2,43.4,43.3,43.5,43.5" stroke="transparent" stroke-width="1" opacity="0.8"/>
				<path class="st0" d="M49.4,38.7c2.2,0,3.3-1.4,4.1-2.9c0.1-0.1,0-0.2-0.1-0.2s-1.7,0.6-3.9,0.6c-2.3,0-3.8-0.6-3.9-0.6
					c-0.1-0.1-0.2,0-0.1,0.2C46.1,37.2,47.2,38.7,49.4,38.7" stroke="transparent" stroke-width="1" opacity="0.8"/>
				<path class="st0" d="M42.9,24.2c0-3.4,2.8-6.2,6.2-6.2s6.2,2.8,6.2,6.2s-2.8,6.2-6.2,6.2C45.7,30.3,42.9,27.6,42.9,24.2"/>
			</g>
		</g>
		<g>
			<path d="M123.8,68.3c-1.1,0-1.9-0.9-1.9-1.9s0.9-1.9,1.9-1.9c1.1,0,1.9,0.9,1.9,1.9S124.9,68.3,123.8,68.3z M123.8,64.6
				c-1,0-1.7,0.8-1.7,1.7s0.8,1.7,1.7,1.7c1,0,1.7-0.8,1.7-1.7S124.8,64.6,123.8,64.6z" stroke="transparent" stroke-width="1" opacity="0.8"/>
		</g>
		<g>
			<path d="M123.2,65.3h0.7c0.4,0,0.7,0.2,0.7,0.6c0,0.2,0,0.3-0.1,0.4s-0.2,0.2-0.4,0.2l0.6,0.9h-0.3l-0.6-0.9h-0.3v0.9h-0.3
				L123.2,65.3L123.2,65.3z M123.5,66.2h0.3c0.2,0,0.3,0,0.4-0.1c0.1,0,0.1-0.1,0.1-0.3c0-0.1,0-0.2-0.1-0.2s-0.2-0.1-0.3-0.1h-0.4
				V66.2z" stroke="transparent" stroke-width="1" opacity="0.8"/>
		</g>
	</g>
</g>
</svg>
